<svg id="Group_70" data-name="Group 70" xmlns="http://www.w3.org/2000/svg" xmlns:xlink="http://www.w3.org/1999/xlink" width="278" height="83.2" viewBox="0 0 278 83.2">
  <defs>
    <style>
      .cls-1 {
        fill: none;
      }

      .cls-2 {
        clip-path: url(#clip-path);
      }

      .cls-3 {
        fill: #ff5a00;
      }
    </style>
    <clipPath id="clip-path">
      <rect id="Rectangle_24" data-name="Rectangle 24" class="cls-1" width="278" height="83.2"/>
    </clipPath>
  </defs>
  <g id="Group_69" data-name="Group 69" class="cls-2">
    <path id="Path_461" data-name="Path 461" class="cls-3" d="M102.253,67.95a14.493,14.493,0,0,0-2.027-7.209h0c-.02-.034-.043-.067-.063-.1.02.034.043.066.063.1.054-.051-34.372-54.063-34.4-54.1A14.89,14.89,0,0,0,53.248,0H38.183V14.817a14.768,14.768,0,0,0,2.731,8.591S74.641,76.449,74.658,76.435A15.024,15.024,0,0,0,87.229,83.2h15.024Z" transform="translate(-19.206)"/>
    <path id="Path_462" data-name="Path 462" class="cls-3" d="M0,122.347v14.835H15A14.956,14.956,0,0,0,29.954,122.23l0-14.91H15.027A15.027,15.027,0,0,0,0,122.347" transform="translate(0 -53.982)"/>
    <path id="Path_463" data-name="Path 463" class="cls-3" d="M421.92,13.691C421.92,6.439,414.949,0,407.076,0h-15V32.511c0,7.252,6.97,13.691,14.843,13.691h15Z" transform="translate(-197.214)"/>
    <path id="Path_464" data-name="Path 464" class="cls-3" d="M424.45,107.349c7.252,0,13.691,6.97,13.691,14.843v15H405.631c-7.252,0-13.691-6.97-13.691-14.843v-15Z" transform="translate(-197.147 -53.996)"/>
    <path id="Path_465" data-name="Path 465" class="cls-3" d="M529.149,0H514.305a15,15,0,0,0-15,15v54.5c0,7.252,6.97,13.691,14.843,13.691h15Z" transform="translate(-251.15)"/>
    <path id="Path_466" data-name="Path 466" class="cls-3" d="M310.482,14.763V0h-51.2l25.436,25.428A15.091,15.091,0,0,0,310.482,14.763Z" transform="translate(-130.421)"/>
    <path id="Path_467" data-name="Path 467" class="cls-3" d="M195.041,122.4v14.763h51.2L220.8,111.739A15.091,15.091,0,0,0,195.041,122.4Z" transform="translate(-98.106 -53.967)"/>
    <path id="Path_468" data-name="Path 468" class="cls-3" d="M252.706,78.853A15.046,15.046,0,0,0,263.331,83.2h14.835V68.31a14.91,14.91,0,0,0-4.438-10.632L220.524,4.385A14.907,14.907,0,0,0,209.951,0l-14.91,0V14.931a14.8,14.8,0,0,0,4.183,10.35Z" transform="translate(-98.106)"/>
  </g>
</svg>
