<svg width="900" height="267" viewBox="0 0 900 267" fill="none" xmlns="http://www.w3.org/2000/svg">
<path d="M378.216 69.0089C365.901 69.0089 359.743 74.3748 359.743 85.1066V98.0376H389.299V129.969H359.743V225.236H319.367V129.969H296.672V98.0376H319.367V85.6344C319.367 76.31 320.862 68.3931 323.853 61.8836C326.844 55.1982 330.802 50.2721 335.728 47.1053C340.654 43.9386 345.581 41.6515 350.507 40.244C355.433 38.8365 360.623 38.1328 366.076 38.1328C375.401 38.1328 383.142 39.1004 389.299 41.0357V69.8006C388.42 69.8006 386.66 69.7126 384.021 69.5367C381.558 69.1848 379.623 69.0089 378.216 69.0089Z" fill="#124C5A"/>
<path d="M449.694 228.667C434.564 228.667 422.953 224.181 414.86 215.208C406.767 206.06 402.721 193.217 402.721 176.679V98.0376H443.625V167.707C443.625 185.652 450.662 194.624 464.736 194.624C481.098 194.624 489.279 185.212 489.279 166.387V98.0376H529.391V225.236H489.279V207.027C481.714 221.454 468.519 228.667 449.694 228.667Z" fill="#124C5A"/>
<path d="M682.599 155.04C682.599 160.318 682.247 166.211 681.543 172.721H587.596C587.948 180.989 590.763 187.411 596.041 191.985C601.319 196.559 608.444 198.847 617.416 198.847C629.732 198.847 637.648 194.888 641.167 186.971H680.751C678.816 199.462 671.955 209.666 660.168 217.583C648.556 225.324 634.306 229.195 617.416 229.195C595.777 229.195 578.712 223.213 566.221 211.25C553.73 199.286 547.484 182.749 547.484 161.637C547.484 140.877 553.73 124.515 566.221 112.552C578.712 100.413 595.337 94.343 616.097 94.343C635.801 94.343 651.811 99.9729 664.126 111.233C676.441 122.492 682.599 137.094 682.599 155.04ZM587.596 147.65H642.75C642.575 139.206 640.199 132.696 635.625 128.122C631.051 123.548 624.454 121.261 615.833 121.261C607.212 121.261 600.351 123.724 595.249 128.65C590.323 133.4 587.772 139.733 587.596 147.65Z" fill="#124C5A"/>
<path d="M700.418 225.236V40.5079H740.794V225.236H700.418Z" fill="#124C5A"/>
<path d="M859.625 40.5079H900.001V225.236H859.889V207.291C856.371 213.625 850.917 218.815 843.528 222.861C836.315 226.732 828.31 228.667 819.513 228.667C801.04 228.667 786.438 222.421 775.706 209.93C764.975 197.439 759.609 181.341 759.609 161.637C759.609 142.284 765.151 126.275 776.234 113.608C787.318 100.941 801.92 94.6069 820.041 94.6069C829.013 94.6069 837.018 96.5422 844.055 100.413C851.093 104.283 856.371 109.561 859.889 116.247V105.427H859.625V40.5079ZM831.125 195.152C840.801 195.152 848.278 191.985 853.556 185.652C858.834 179.318 861.473 171.313 861.473 161.637C861.473 152.137 858.834 144.22 853.556 137.886C848.278 131.553 840.801 128.386 831.125 128.386C821.976 128.386 814.587 131.465 808.957 137.622C803.503 143.78 800.777 151.785 800.777 161.637C800.777 171.489 803.503 179.582 808.957 185.916C814.587 192.073 821.976 195.152 831.125 195.152Z" fill="#124C5A"/>
<path d="M236.866 135.134L159.171 11.2444C154.783 4.24784 147.105 0 138.847 0H123.104H102.454C94.2312 0 86.5815 4.2111 82.1834 11.1586L3.72028 135.105C0.63076 139.986 -0.594231 145.817 0.270296 151.528L8.33401 204.797C9.20539 210.554 12.1403 215.797 16.5915 219.549L65.1035 260.445C69.4303 264.093 74.9072 266.093 80.5663 266.093H158.229C163.763 266.093 169.128 264.179 173.413 260.676L223.685 219.576C228.289 215.812 231.331 210.472 232.221 204.593L240.262 151.471C241.121 145.795 239.916 139.998 236.866 135.134Z" fill="#99D018"/>
<path d="M156.368 113.909C147.034 104.893 134.626 99.0234 120.622 99.0234V150.806L120.69 150.887L156.368 113.909Z" fill="#FD8B49"/>
<path d="M172.492 150.887C172.492 136.243 166.13 123.34 156.368 113.909L120.69 150.887H172.492Z" fill="#FEB59A"/>
<path d="M156.658 188.188C166.421 178.757 172.492 165.531 172.492 150.887H120.69L156.658 188.188Z" fill="#F75C03"/>
<path d="M120.612 202.751C134.616 202.751 147.324 197.204 156.658 188.188L120.69 150.887L120.612 150.968V202.751Z" fill="#F75C03"/>
<path d="M84.6565 188.265C93.9826 197.236 106.648 202.751 120.612 202.751V150.968L84.6565 188.265Z" fill="#F75C03"/>
<path d="M68.7422 150.887C68.7422 165.571 74.8464 178.83 84.6565 188.265L120.612 150.968L120.622 150.887H68.7422Z" fill="#F75C03"/>
<path fill-rule="evenodd" clip-rule="evenodd" d="M120.622 150.806L120.69 150.887L120.612 150.968L120.622 150.887V150.806ZM84.6565 113.509C93.9826 104.539 106.658 99.0234 120.622 99.0234V150.806L84.6565 113.509Z" fill="#F75C03"/>
<path d="M84.6565 113.509C74.8464 122.944 68.7422 136.203 68.7422 150.887H120.622V150.806L84.6565 113.509Z" fill="#F75C03"/>
</svg>
